<svg xmlns="http://www.w3.org/2000/svg" xmlns:xlink="http://www.w3.org/1999/xlink" width="500" zoomAndPan="magnify" viewBox="0 0 375 374.999991" height="500" preserveAspectRatio="xMidYMid meet" version="1.0"><defs><clipPath id="d341e76ef2"><path d="M 25.632812 127 L 211 127 L 211 280 L 25.632812 280 Z M 25.632812 127 " clip-rule="nonzero"/></clipPath><clipPath id="1da1a0a0a9"><path d="M 137 54.945312 L 337.632812 54.945312 L 337.632812 286.695312 L 137 286.695312 Z M 137 54.945312 " clip-rule="nonzero"/></clipPath></defs><path fill="#0046c0" d="M 111.585938 175.386719 C 102.113281 135.128906 108.878906 107.386719 131.890625 92.160156 C 96.699219 98.25 82.148438 123.625 88.914062 167.605469 L 89.929688 167.945312 C 97.035156 170.992188 104.144531 173.359375 111.585938 175.386719 Z M 111.585938 175.386719 " fill-opacity="1" fill-rule="evenodd"/><g clip-path="url(#d341e76ef2)"><path fill="#0046c0" d="M 95.34375 195.347656 C 100.082031 212.265625 111.925781 232.902344 121.402344 247.113281 C 130.539062 260.984375 138.996094 270.796875 146.441406 275.871094 C 165.054688 286.359375 175.542969 270.796875 176.898438 229.183594 C 161.667969 263.691406 143.058594 256.246094 121.0625 206.851562 C 120.386719 205.160156 119.710938 203.46875 119.371094 202.117188 C 150.839844 207.527344 183.664062 200.085938 210.398438 181.140625 C 178.25 191.964844 144.75 192.644531 113.617188 184.523438 C 105.835938 182.492188 98.050781 179.785156 90.609375 176.402344 C 65.566406 165.914062 43.234375 149 25.636719 127.007812 C 38.496094 158.8125 63.875 183.507812 95.34375 195.347656 Z M 95.34375 195.347656 " fill-opacity="1" fill-rule="evenodd"/></g><g clip-path="url(#1da1a0a0a9)"><path fill="#344c5d" d="M 232.390625 79.644531 C 258.449219 75.246094 274.015625 92.5 279.765625 130.390625 C 238.484375 157.121094 187.726562 166.929688 137.304688 156.105469 C 174.527344 176.742188 219.195312 179.109375 258.449219 162.195312 C 297.699219 145.617188 326.800781 111.785156 337.632812 70.847656 C 326.800781 88.441406 313.605469 103.664062 298.378906 116.519531 C 293.980469 80.996094 279.429688 61.035156 255.0625 56.300781 C 238.144531 52.917969 222.578125 55.621094 210.398438 64.417969 C 190.433594 79.304688 188.402344 108.0625 154.5625 108.0625 C 187.726562 120.917969 200.921875 85.058594 232.390625 79.644531 Z M 165.730469 227.488281 C 176.558594 221.738281 183.324219 223.429688 186.03125 232.566406 C 190.433594 247.113281 185.695312 278.238281 201.597656 285.679688 C 208.027344 288.726562 217.164062 284.667969 227.992188 273.839844 C 259.125 242.714844 283.152344 188.582031 296.347656 147.308594 C 292.625 151.03125 285.859375 156.105469 275.367188 162.871094 C 270.96875 196.703125 253.371094 242.714844 222.578125 260.984375 C 200.582031 274.515625 203.628906 246.773438 198.214844 226.8125 C 193.476562 208.207031 180.957031 198.054688 165.730469 227.488281 Z M 165.730469 227.488281 " fill-opacity="1" fill-rule="evenodd"/></g></svg>