<?xml version="1.0" encoding="UTF-8"?>
<svg width="55px" height="55px" viewBox="0 0 61 63" version="1.1" xmlns="http://www.w3.org/2000/svg" xmlns:xlink="http://www.w3.org/1999/xlink">
    <!-- Generator: sketchtool 50 (54983) - http://www.bohemiancoding.com/sketch -->
    <title>D634FD1C-BCD7-4A06-A5C8-41D9BEFE7C65</title>
    <desc>Created with sketchtool.</desc>
    <defs></defs>
    <g id="Page-1" stroke="none" stroke-width="1" fill="none" fill-rule="evenodd">
        <g id="Главная" transform="translate(-330.000000, -3721.000000)" stroke="#FFFFFF" stroke-width="4">
            <g id="Main_Services_Ico_7" transform="translate(332.000000, 3723.000000)">
                <path d="M56.3952705,13.0752514 C55.9731598,10.1964511 54.9003218,7.54139844 53.2757386,5.19920233 C51.3918861,2.48496064 48.7551313,0.783437449 45.463179,0.285208564 C44.6694066,0.164879134 43.8673325,0.0946327634 43.0690899,0.000320507035 C39.5727875,-0.0230949497 36.5222238,1.23808757 33.7417853,3.26092286 C32.0495111,4.49283606 30.3048721,5.13480983 28.4989282,5.15757485 C26.6942614,5.13546026 24.9496224,4.49283606 23.2573482,3.26092286 C20.4769097,1.23808757 17.426346,-0.0230949497 13.9306822,0.000320507035 C13.1324396,0.093982334 12.3303655,0.164879134 11.5365931,0.285208564 C8.24464078,0.783437449 5.60724736,2.48496064 3.72403352,5.19920233 C2.09945026,7.54139844 1.02661227,10.1971015 0.604501601,13.0752514 C0.140243729,16.2473953 -0.129242959,19.4169376 0.0623352552,22.6430672 C0.229008301,25.4587759 0.449961842,28.2582238 0.966584425,31.0238494 C1.97364724,36.4172096 3.49541685,40.1923016 5.76242572,45.1993067 C7.23438499,48.4527544 8.95220298,51.5175775 11.2134645,54.2643407 C12.6139012,55.9652134 14.23146,57.3890033 16.2558031,58.2508222 C17.0272247,58.5799394 17.8548426,58.8518189 18.6799061,58.9552372 C21.3990395,59.2960621 23.4374317,57.6654357 23.9227632,54.7131369 C24.1877797,53.1000721 24.2292884,51.4499328 24.4144806,49.8219082 C24.5505012,48.6212156 24.651399,47.4003597 24.9655873,46.2438963 C25.1584427,45.5323266 25.5843849,44.7414045 26.1444319,44.3049664 C26.8737063,43.7364911 27.6955768,43.4626604 28.4995668,43.4437979 C29.3054724,43.4626604 30.127343,43.7364911 30.8559788,44.3049664 C31.4160258,44.7420549 31.841968,45.532977 32.0348234,46.2438963 C32.3490117,47.4003597 32.4499095,48.6212156 32.5859301,49.8219082 C32.7704837,51.4499328 32.8119923,53.0994217 33.0776475,54.7131369 C33.5629789,57.6654357 35.6013711,59.2967126 38.3211432,58.9552372 C39.1455681,58.8518189 39.973186,58.5799394 40.7446076,58.2508222 C42.7689507,57.3890033 44.3858709,55.9652134 45.7869462,54.2643407 C48.0482077,51.5175775 49.7660257,48.4527544 51.2386236,45.1993067 C53.5049938,40.1923016 55.0267635,36.4172096 56.0331877,31.0238494 C56.5498103,28.2582238 56.7714024,25.4587759 56.9380754,22.6430672 C57.1290151,19.4169376 56.8588898,16.2473953 56.3952705,13.0752514 Z" id="Shape-Copy-6" ></path>
                <rect id="Rectangle-8" x="19" y="17" width="19" height="19" rx="5"></rect>
                <path d="M38,27 L57,27" id="Path-14"></path>
                <path d="M1,27 L20,27" id="Path-14"></path>
            </g>
        </g>
    </g>
</svg>