<?xml version="1.0" encoding="UTF-8"?>
<svg width="65px" height="55px" viewBox="0 0 85 74" version="1.1" xmlns="http://www.w3.org/2000/svg" xmlns:xlink="http://www.w3.org/1999/xlink">
    <!-- Generator: sketchtool 50 (54983) - http://www.bohemiancoding.com/sketch -->
    <title>1541125A-3886-4989-85BF-AA272C11FFF6</title>
    <desc>Created with sketchtool.</desc>
    <defs></defs>
    <g id="Page-1" stroke="none" stroke-width="1" fill="none" fill-rule="evenodd">
        <g id="Главная" transform="translate(-1278.000000, -2961.000000)" stroke="#FFFFFF" stroke-width="4">
            <g id="Main_Services_Ico_3" transform="translate(1280.000000, 2963.000000)">
                <path d="M68.3952705,13.0752514 C67.9731598,10.1964511 66.9003218,7.54139844 65.2757386,5.19920233 C63.3918861,2.48496064 60.7551313,0.783437449 57.463179,0.285208564 C56.6694066,0.164879134 55.8673325,0.0946327634 55.0690899,0.000320507035 C51.5727875,-0.0230949497 48.5222238,1.23808757 45.7417853,3.26092286 C44.0495111,4.49283606 42.3048721,5.13480983 40.4989282,5.15757485 C38.6942614,5.13546026 36.9496224,4.49283606 35.2573482,3.26092286 C32.4769097,1.23808757 29.426346,-0.0230949497 25.9306822,0.000320507035 C25.1324396,0.093982334 24.3303655,0.164879134 23.5365931,0.285208564 C20.2446408,0.783437449 17.6072474,2.48496064 15.7240335,5.19920233 C14.0994503,7.54139844 13.0266123,10.1971015 12.6045016,13.0752514 C12.1402437,16.2473953 11.870757,19.4169376 12.0623353,22.6430672 C12.2290083,25.4587759 12.4499618,28.2582238 12.9665844,31.0238494 C13.9736472,36.4172096 15.4954169,40.1923016 17.7624257,45.1993067 C19.234385,48.4527544 20.952203,51.5175775 23.2134645,54.2643407 C24.6139012,55.9652134 26.23146,57.3890033 28.2558031,58.2508222 C29.0272247,58.5799394 29.8548426,58.8518189 30.6799061,58.9552372 C33.3990395,59.2960621 35.4374317,57.6654357 35.9227632,54.7131369 C36.1877797,53.1000721 36.2292884,51.4499328 36.4144806,49.8219082 C36.5505012,48.6212156 36.651399,47.4003597 36.9655873,46.2438963 C37.1584427,45.5323266 37.5843849,44.7414045 38.1444319,44.3049664 C38.8737063,43.7364911 39.6955768,43.4626604 40.4995668,43.4437979 C41.3054724,43.4626604 42.127343,43.7364911 42.8559788,44.3049664 C43.4160258,44.7420549 43.841968,45.532977 44.0348234,46.2438963 C44.3490117,47.4003597 44.4499095,48.6212156 44.5859301,49.8219082 C44.7704837,51.4499328 44.8119923,53.0994217 45.0776475,54.7131369 C45.5629789,57.6654357 47.6013711,59.2967126 50.3211432,58.9552372 C51.1455681,58.8518189 51.973186,58.5799394 52.7446076,58.2508222 C54.7689507,57.3890033 56.3858709,55.9652134 57.7869462,54.2643407 C60.0482077,51.5175775 61.7660257,48.4527544 63.2386236,45.1993067 C65.5049938,40.1923016 67.0267635,36.4172096 68.0331877,31.0238494 C68.5498103,28.2582238 68.7714024,25.4587759 68.9380754,22.6430672 C69.1290151,19.4169376 68.8588898,16.2473953 68.3952705,13.0752514 Z" id="Shape-Copy-2"></path>
                <path d="M68.988695,29 L73,29 C77.418278,29 81,32.581722 81,37 L81,62 C81,66.418278 77.418278,70 73,70 L8,70 C3.581722,70 0,66.418278 0,62 L0,37 C0,32.581722 3.581722,29 8,29 L12.3760031,29" id="Rectangle-9"></path>
            </g>
        </g>
    </g>
</svg>