<?xml version="1.0" encoding="UTF-8"?>
<svg width="55px" height="55px" viewBox="0 0 61 74" version="1.1" xmlns="http://www.w3.org/2000/svg" xmlns:xlink="http://www.w3.org/1999/xlink">
    <!-- Generator: sketchtool 50 (54983) - http://www.bohemiancoding.com/sketch -->
    <title>7EE58397-2D63-4320-B03F-F2FB494D1932</title>
    <desc>Created with sketchtool.</desc>
    <defs></defs>
    <g id="Page-1" stroke="none" stroke-width="1" fill="none" fill-rule="evenodd">
        <g id="Главная" transform="translate(-330.000000, -3341.000000)" stroke="#FFFFFF" stroke-width="4">
            <g id="Main_Services_Ico_4" transform="translate(332.000000, 3343.000000)">
                <path d="M56.3952705,12.9377607 C55.9731598,10.089232 54.9003218,7.4620981 53.2757386,5.14453097 C51.3918861,2.45883044 48.7551313,0.775199341 45.463179,0.2822095 C44.6694066,0.163145374 43.8673325,0.0936376681 43.0690899,0.000317136796 C39.5727875,-0.0228520986 36.5222238,1.22506866 33.7417853,3.22663316 C32.0495111,4.44559237 30.3048721,5.08081558 28.4989282,5.10334122 C26.6942614,5.08145917 24.9496224,4.44559237 23.2573482,3.22663316 C20.4769097,1.22506866 17.426346,-0.0228520986 13.9306822,0.000317136796 C13.1324396,0.0929940782 12.3303655,0.163145374 11.5365931,0.2822095 C8.24464078,0.775199341 5.60724736,2.45883044 3.72403352,5.14453097 C2.09945026,7.4620981 1.02661227,10.0898755 0.604501601,12.9377607 C0.140243729,16.0765485 -0.129242959,19.212762 0.0623352552,22.4049677 C1.27260236,42.6357485 22.8145837,43.118945 28.4995668,42.9869718 C34.1845498,42.8549986 55.6938326,43.2036852 56.9380754,22.4049677 C57.1290151,19.212762 56.8588898,16.0765485 56.3952705,12.9377607 Z" id="Shape-Copy-5"></path>
                <path d="M15.14408,41 C13.1643779,42.138553 12,43.5315053 12,45.0358653 C12,48.8820507 19.6111593,52 29,52 C38.3888407,52 46,48.8820507 46,45.0358653 C46,43.5565002 44.873993,42.1848716 42.9539216,41.0569613" id="Oval-2"></path>
                <path d="M15.9165839,49.0632435 C13.4706907,50.325097 12,51.9464781 12,53.7150572 C12,57.73842 19.6111593,61 29,61 C38.3888407,61 46,57.73842 46,53.7150572 C46,51.9167889 44.4795176,50.2707021 41.9594158,49" id="Oval-2-Copy"></path>
                <path d="M15.9165839,58.0632435 C13.4706907,59.325097 12,60.9464781 12,62.7150572 C12,66.73842 19.6111593,70 29,70 C38.3888407,70 46,66.73842 46,62.7150572 C46,60.9167889 44.4795176,59.2707021 41.9594158,58" id="Oval-2-Copy-2"></path>
            </g>
        </g>
    </g>
</svg>