<?xml version="1.0" encoding="UTF-8"?>
<svg width="49px" height="55px" viewBox="0 0 49 55" version="1.1" xmlns="http://www.w3.org/2000/svg" xmlns:xlink="http://www.w3.org/1999/xlink">
    <!-- Generator: sketchtool 50 (54983) - http://www.bohemiancoding.com/sketch -->
    <title>9940DAF6-01A3-48F4-ADA3-15CA70C77B8A</title>
    <desc>Created with sketchtool.</desc>
    <defs></defs>
    <g id="Page-1" stroke="none" stroke-width="1" fill="none" fill-rule="evenodd">
        <g id="Концепция-FlyDent-1440" transform="translate(-120.000000, -1634.000000)" stroke="#FFFFFF" stroke-width="3">
            <g id="Services_Ico_1" transform="translate(122.000000, 1636.000000)">
                <path d="M32,0 L32,10.9430141 C32,12.6313408 30.6568542,14 29,14 L15,14 C13.3431458,14 12,12.6313408 12,10.9430141 L12,0.130252185" id="Rectangle-8"></path>
                <path d="M32.1141732,0 C29.5393701,0 27.0479823,0.752135883 24.9094488,2.17563641 C23.4707185,3.13229397 21.6385335,3.13229397 20.2005413,2.17563641 C18.0627461,0.752135883 15.5713583,1.31631697e-15 12.9958169,1.31631697e-15 C8.44340551,1.31631697e-15 5.01377953,1.63320935 2.80364173,4.85442578 C0.942667323,7.56582006 0,11.3657736 0,16.1483204 C0,29.8001424 8.49434055,50.9473875 12.7854331,50.9473875 C17.7482776,50.9473875 18.6828248,44.7865425 19.5081201,39.3504156 C20.0676673,35.6675433 20.7017717,31.4933744 22.488189,31.4933744 C24.4170768,31.4933744 24.9212598,35.620859 25.4092028,39.6127368 C26.0595472,44.950308 26.7992126,51 31.5900591,51 C34.796752,51 38.8102854,41.5393903 39.9640748,38.6397768 C43.1648622,30.5982216 45,22.2713734 45,15.7948535 C45.0007382,5.60952575 40.4247047,0 32.1141732,0 Z" id="Shape" fill-rule="nonzero"></path>
            </g>
        </g>
    </g>
</svg>