<?xml version="1.0" encoding="UTF-8"?>
<svg width="55px" height="55px" viewBox="0 0 55 55" version="1.1" xmlns="http://www.w3.org/2000/svg" xmlns:xlink="http://www.w3.org/1999/xlink">
    <!-- Generator: sketchtool 50 (54983) - http://www.bohemiancoding.com/sketch -->
    <title>C0BCF376-3384-48CA-B8FD-91952785AB84</title>
    <desc>Created with sketchtool.</desc>
    <defs></defs>
    <g id="Page-1" stroke="none" stroke-width="1" fill="none" fill-rule="evenodd">
        <g id="Концепция-FlyDent-1440" transform="translate(-982.000000, -1629.000000)" fill-rule="nonzero" stroke="#FFFFFF" stroke-width="3">
            <g id="Bitmap-+-bokeh-floating-orbs-+-Rectangle-11-Mask-Copy-3" transform="translate(864.000000, 1491.000000)">
                <g id="Services_Ico_4" transform="translate(120.000000, 140.000000)">
                    <path d="M33.7234686,8 C31.5442288,8 29.4355893,8.63415378 27.6255957,9.83436011 C26.4078955,10.6409537 24.8571864,10.6409537 23.640111,9.83436011 C21.8307422,8.63415378 19.7221028,8 17.5422382,8 C13.6892073,8 10.7864698,9.37701964 8.91587237,12.0929472 C7.34079682,14.3790248 6.54295013,17.5829071 6.54295013,21.6152505 C6.54295013,33.1256103 13.7323172,50.9556405 17.3641753,50.9556405 C21.564585,50.9556405 22.3555591,45.7612025 23.0540654,41.1778013 C23.5276502,38.0726345 24.064338,34.5532372 25.5763106,34.5532372 C27.2088661,34.5532372 27.6355922,38.0332733 28.0485732,41.3989742 C28.5990062,45.8992793 29.2250378,51 33.2798733,51 C35.9939265,51 39.3908666,43.0234075 40.3674009,40.5786354 C43.0764559,33.7985005 44.6296641,26.7778246 44.6296641,21.3172295 C44.6302889,12.7296001 40.7572649,8 33.7234686,8 Z" id="Shape-Copy-4"></path>
                    <path d="M50.814832,17.6595147 C50.8156597,6.28267499 45.6847009,0.0169291339 36.3663697,0.0169291339 C33.4793259,0.0169291339 30.6858131,0.857052257 28.2879444,2.44707839 C26.6747425,3.51564878 24.6203724,3.51564878 23.0079982,2.44707839 C20.6109573,0.857052257 17.8174444,0.0169291339 14.9295729,0.0169291339 C9.82510068,0.0169291339 5.97957158,1.84119649 3.5014153,5.43924104 C1.41476466,8.46782282 0.357782169,12.7123069 0.357782169,18.0543312" id="Shape-Copy-4" stroke-linecap="round"></path>
                </g>
            </g>
        </g>
    </g>
</svg>