<?xml version="1.0" standalone="no"?>
<!DOCTYPE svg PUBLIC "-//W3C//DTD SVG 20010904//EN"
 "http://www.w3.org/TR/2001/REC-SVG-20010904/DTD/svg10.dtd">
<svg version="1.0" xmlns="http://www.w3.org/2000/svg"
 width="1186.000000pt" height="164.000000pt" viewBox="0 0 1186.000000 164.000000"
 preserveAspectRatio="xMidYMid meet">
<metadata>
Created by potrace 1.16, written by Peter Selinger 2001-2019
</metadata>
<g transform="translate(0.000000,164.000000) scale(0.100000,-0.100000)"
fill="#002c5f" stroke="none">
<path d="M1327 1630 c-699 -68 -1220 -344 -1312 -695 -43 -168 4 -319 148
-472 375 -395 1273 -565 2075 -392 392 85 734 276 871 489 62 95 85 181 79
292 -5 80 -10 99 -48 176 -142 287 -574 508 -1150 588 -124 18 -538 26 -663
14z m700 -159 c216 -33 403 -81 403 -105 0 -42 -247 -191 -470 -282 -427 -174
-627 -198 -684 -80 -17 35 -18 47 -9 102 13 76 78 226 127 293 24 32 55 59 89
76 l52 27 180 -6 c99 -3 239 -14 312 -25z m-957 -32 c0 -5 -42 -66 -92 -134
-144 -192 -272 -414 -410 -710 -44 -93 -86 -176 -93 -184 -13 -13 -24 -9 -85
33 -139 96 -235 230 -247 349 -8 74 11 145 56 214 118 181 360 321 716 413
120 31 155 36 155 19z m1733 -241 c89 -60 171 -149 209 -226 29 -60 33 -76 33
-152 0 -73 -4 -93 -29 -143 -97 -199 -411 -384 -787 -466 -95 -20 -122 -16
-98 17 8 10 46 61 85 113 148 196 287 441 430 752 40 88 73 147 81 147 8 0 42
-19 76 -42z m-937 -500 c93 -45 90 -152 -8 -357 -82 -171 -152 -208 -373 -197
-324 17 -704 90 -713 138 -8 41 273 203 523 301 313 123 485 158 571 115z"/>
<path d="M3770 820 l0 -590 145 0 145 0 0 235 0 235 245 0 245 0 0 -235 0
-235 145 0 145 0 0 590 0 590 -145 0 -145 0 0 -220 0 -220 -245 0 -245 0 0
220 0 220 -145 0 -145 0 0 -590z"/>
<path d="M4940 1405 c0 -3 108 -176 240 -386 l240 -381 0 -204 0 -204 145 0
145 0 0 205 0 205 240 381 c132 210 240 383 240 385 0 3 -77 3 -171 2 l-172
-3 -140 -224 c-128 -203 -142 -221 -155 -205 -7 11 -72 112 -143 227 l-131
207 -169 0 c-93 0 -169 -2 -169 -5z"/>
<path d="M6290 820 l0 -591 453 3 453 3 49 26 c35 18 59 39 80 74 l30 48 3
514 3 513 -146 0 -145 0 0 -444 c0 -400 -2 -445 -17 -457 -12 -11 -69 -15
-245 -17 l-228 -3 0 460 0 461 -145 0 -145 0 0 -590z"/>
<path d="M7610 820 l0 -590 145 0 145 0 0 460 0 460 224 0 c205 0 226 -2 247
-19 l24 -19 3 -441 3 -441 139 0 140 0 0 499 c0 346 -3 508 -11 532 -18 51
-55 97 -102 122 -41 22 -47 22 -499 25 l-458 3 0 -591z"/>
<path d="M8930 820 l0 -591 453 3 453 3 49 26 c35 18 59 39 80 74 l30 48 3
416 c2 293 0 428 -8 456 -16 55 -53 101 -103 128 -41 22 -47 22 -499 25 l-458
3 0 -591z m758 314 c22 -15 22 -17 22 -313 0 -265 -2 -300 -17 -312 -12 -11
-69 -15 -245 -17 l-228 -3 0 330 0 331 223 0 c185 0 226 -3 245 -16z"/>
<path d="M10398 1400 c-52 -16 -98 -52 -126 -98 l-27 -47 -3 -512 -3 -513 146
0 145 0 0 180 0 180 245 0 245 0 0 -180 0 -180 145 0 145 0 0 590 0 590 -442
-1 c-244 0 -455 -4 -470 -9z m622 -395 l0 -145 -245 0 -245 0 0 129 c0 123 1
131 22 145 19 13 60 16 245 16 l223 0 0 -145z"/>
<path d="M11570 820 l0 -590 145 0 145 0 0 590 0 590 -145 0 -145 0 0 -590z"/>
</g>
</svg>
