<svg width="87" height="12" viewBox="0 0 87 12" fill="none" xmlns="http://www.w3.org/2000/svg">
<g clip-path="url(#clip0)">
<path fill-rule="evenodd" clip-rule="evenodd" d="M81.3328 3.46256H77.7497C77.1409 3.50858 76.9769 3.64666 76.9769 4.36005V6.31612H81.3094V3.46256H81.3328ZM83.2297 1.89771V10.4814H81.3328V7.99603H77.0003V10.4584H75.1034V3.73871C75.1034 2.54206 75.5952 1.89771 77.0003 1.89771H83.2297V1.89771ZM73.2065 3.73871V8.38725C73.2065 9.86005 72.3635 10.4584 71.3096 10.4584H65.3379V1.89771H71.3096C72.9255 1.89771 73.2065 2.91026 73.2065 3.73871ZM71.2862 4.268C71.2862 3.80775 71.0052 3.48557 70.49 3.48557H67.2114V8.8475H70.4666C71.216 8.80147 71.2628 8.36423 71.2628 8.01904V4.268H71.2862ZM26.6738 1.89771H28.5707V5.28055H32.8095V1.89771H34.7064V10.4814H32.8095V6.96047H28.5707V10.4584H26.6738V1.89771ZM37.9616 1.89771L40.3503 5.39561L42.6921 1.89771H44.9872L41.287 7.37469V10.4584H39.3901V7.37469L35.6431 1.89771H37.9616ZM55.6192 1.89771H61.7314C62.5979 1.89771 63.441 2.01277 63.4176 3.73871V10.4584H61.5207V4.36005C61.5207 3.62365 61.427 3.46256 60.8415 3.46256H57.5161V10.4584H55.6192V1.89771V1.89771ZM87.0001 1.89771V10.4814H85.1032V1.89771H87.0001ZM45.9239 10.4584H52.0361C53.2539 10.4584 53.7457 10.1132 53.7223 8.38725V1.89771H51.8254V8.01904C51.8254 8.75545 51.7317 8.8475 51.1462 8.8475H47.8208V1.89771H45.9239V10.4584Z" fill="white"/>
<path fill-rule="evenodd" clip-rule="evenodd" d="M13.2792 7.44365C13.4431 8.29512 12.9982 9.00851 12.6235 9.67587C12.2019 10.3202 11.5228 10.8495 10.6797 10.7805C8.82966 10.7575 7.00301 10.4813 5.31688 9.97504C5.24662 9.95202 5.15295 9.906 5.12953 9.83696C5.10611 9.74491 5.15295 9.65286 5.2232 9.58382C6.76883 8.36416 8.59548 7.78884 10.3987 7.19052C11.0778 7.00642 11.8038 6.7993 12.5532 6.89135C12.8577 6.93738 13.1621 7.1675 13.2792 7.44365ZM19.6256 3.80767C20.4921 4.49805 21.2649 5.46457 21.0073 6.6152C20.5858 8.31813 18.6889 9.21562 17.1901 9.79093C16.3704 10.0671 15.5508 10.3432 14.6609 10.4123C14.614 10.4123 14.5204 10.4123 14.497 10.3432L14.5204 10.2512C15.785 8.84742 16.7451 7.28257 17.5882 5.67169C17.9863 4.9583 18.3376 4.2219 18.6655 3.4855C18.7123 3.43947 18.7591 3.39345 18.8294 3.39345C19.1573 3.41646 19.368 3.64658 19.6256 3.80767ZM7.47138 2.01269L7.44797 2.10474C5.62132 4.15286 4.40355 6.52315 3.25604 8.89345C3.02186 9.10056 2.81109 8.82441 2.62374 8.73236C1.59332 8.08801 0.679998 7.02943 0.937602 5.76374C1.35914 4.12985 3.09211 3.23236 4.52064 2.65704C5.36371 2.33487 6.25362 2.08173 7.19036 1.94365C7.28404 1.94365 7.42455 1.92064 7.47138 2.01269ZM16.5578 2.33487C16.6515 2.38089 16.792 2.40391 16.8388 2.51897C16.8857 2.63403 16.792 2.70307 16.7217 2.79512C15.2932 3.89972 13.6539 4.52106 11.9677 5.05035C11.1013 5.25746 10.2348 5.62566 9.29803 5.41855C9.06385 5.37252 8.8765 5.21144 8.73599 5.00432C8.5018 4.35997 8.82966 3.69261 9.08727 3.11729C9.46196 2.40391 10.1177 1.57545 11.0076 1.57545C12.9747 1.57545 14.8248 1.8516 16.5578 2.33487ZM18.9699 2.40391C20.4453 3.20934 22.1314 4.5901 21.9441 6.45411C21.7333 8.18006 20.094 9.37671 18.642 10.1131C14.3799 12.1152 8.36129 12.1842 3.9586 10.4353C2.45981 9.83696 0.797091 8.77838 0.164789 7.21353C-0.327001 5.92483 0.258464 4.56709 1.24204 3.6696C3.30288 1.82859 5.92576 1.20725 8.61889 0.839052C11.5462 0.493864 14.6375 0.793027 17.2369 1.69052C17.8458 1.87462 18.4313 2.10474 18.9699 2.40391Z" fill="white"/>
</g>
<defs>
<clipPath id="clip0">
<rect width="87" height="11" fill="white" transform="translate(0 0.677979)"/>
</clipPath>
</defs>
</svg>
